<svg xmlns="http://www.w3.org/2000/svg" xmlns:xlink="http://www.w3.org/1999/xlink" version="1.1" width="81px" height="331px" viewBox="-0.5 -0.5 81 331" style="background-color: rgb(30, 30, 30);"><defs/><rect fill="#1e1e1e" width="100%" height="100%" x="0" y="0"/><g><g data-cell-id="0"><g data-cell-id="1"><g data-cell-id="2"><g><rect x="0" y="0" width="80" height="30" rx="4.5" ry="4.5" fill="#2d2d2d" stroke="#4fc3f7" pointer-events="all"/></g><g><g fill="#FFFFFF" font-family="&quot;Helvetica&quot;" text-anchor="middle" font-size="12px"><text x="39.5" y="19.5">Buccal Cavity</text></g></g></g><g data-cell-id="3"><g><rect x="0" y="50" width="80" height="30" rx="4.5" ry="4.5" fill="#2d2d2d" stroke="#4fc3f7" pointer-events="all"/></g><g><g fill="#FFFFFF" font-family="&quot;Helvetica&quot;" text-anchor="middle" font-size="12px"><text x="39.5" y="69.5">Pharynx</text></g></g></g><g data-cell-id="4"><g><path d="M 40 30 L 40 35 Q 40 40 40 41.82 L 40 43.63" fill="none" stroke="#4fc3f7" stroke-miterlimit="10" pointer-events="stroke"/><path d="M 40 48.88 L 36.5 41.88 L 40 43.63 L 43.5 41.88 Z" fill="#4fc3f7" stroke="#4fc3f7" stroke-miterlimit="10" pointer-events="all"/></g></g><g data-cell-id="5"><g><rect x="0" y="100" width="80" height="30" rx="4.5" ry="4.5" fill="#2d2d2d" stroke="#4fc3f7" pointer-events="all"/></g><g><g fill="#FFFFFF" font-family="&quot;Helvetica&quot;" text-anchor="middle" font-size="12px"><text x="39.5" y="119.5">Oesophagus</text></g></g></g><g data-cell-id="6"><g><path d="M 40 80 L 40 85 Q 40 90 40 91.82 L 40 93.63" fill="none" stroke="#4fc3f7" stroke-miterlimit="10" pointer-events="stroke"/><path d="M 40 98.88 L 36.5 91.88 L 40 93.63 L 43.5 91.88 Z" fill="#4fc3f7" stroke="#4fc3f7" stroke-miterlimit="10" pointer-events="all"/></g></g><g data-cell-id="7"><g><rect x="0" y="150" width="80" height="30" rx="4.5" ry="4.5" fill="#2d2d2d" stroke="#4fc3f7" pointer-events="all"/></g><g><g fill="#FFFFFF" font-family="&quot;Helvetica&quot;" text-anchor="middle" font-size="12px"><text x="39.5" y="169.5">Stomach</text></g></g></g><g data-cell-id="8"><g><path d="M 40 130 L 40 135 Q 40 140 40 141.82 L 40 143.63" fill="none" stroke="#4fc3f7" stroke-miterlimit="10" pointer-events="stroke"/><path d="M 40 148.88 L 36.5 141.88 L 40 143.63 L 43.5 141.88 Z" fill="#4fc3f7" stroke="#4fc3f7" stroke-miterlimit="10" pointer-events="all"/></g></g><g data-cell-id="9"><g><rect x="0" y="200" width="80" height="30" rx="4.5" ry="4.5" fill="#2d2d2d" stroke="#4fc3f7" pointer-events="all"/></g><g><g fill="#FFFFFF" font-family="&quot;Helvetica&quot;" text-anchor="middle" font-size="12px"><text x="39.5" y="219.5">Intestine</text></g></g></g><g data-cell-id="10"><g><path d="M 40 180 L 40 185 Q 40 190 40 191.82 L 40 193.63" fill="none" stroke="#4fc3f7" stroke-miterlimit="10" pointer-events="stroke"/><path d="M 40 198.88 L 36.5 191.88 L 40 193.63 L 43.5 191.88 Z" fill="#4fc3f7" stroke="#4fc3f7" stroke-miterlimit="10" pointer-events="all"/></g></g><g data-cell-id="11"><g><rect x="0" y="250" width="80" height="30" rx="4.5" ry="4.5" fill="#2d2d2d" stroke="#4fc3f7" pointer-events="all"/></g><g><g fill="#FFFFFF" font-family="&quot;Helvetica&quot;" text-anchor="middle" font-size="12px"><text x="39.5" y="269.5">Rectum</text></g></g></g><g data-cell-id="12"><g><path d="M 40 230 L 40 235 Q 40 240 40 241.82 L 40 243.63" fill="none" stroke="#4fc3f7" stroke-miterlimit="10" pointer-events="stroke"/><path d="M 40 248.88 L 36.5 241.88 L 40 243.63 L 43.5 241.88 Z" fill="#4fc3f7" stroke="#4fc3f7" stroke-miterlimit="10" pointer-events="all"/></g></g><g data-cell-id="13"><g><rect x="0" y="300" width="80" height="30" rx="4.5" ry="4.5" fill="#2d2d2d" stroke="#4fc3f7" pointer-events="all"/></g><g><g fill="#FFFFFF" font-family="&quot;Helvetica&quot;" text-anchor="middle" font-size="12px"><text x="39.5" y="319.5">Cloaca</text></g></g></g><g data-cell-id="14"><g><path d="M 40 280 L 40 285 Q 40 290 40 291.82 L 40 293.63" fill="none" stroke="#4fc3f7" stroke-miterlimit="10" pointer-events="stroke"/><path d="M 40 298.88 L 36.5 291.88 L 40 293.63 L 43.5 291.88 Z" fill="#4fc3f7" stroke="#4fc3f7" stroke-miterlimit="10" pointer-events="all"/></g></g></g></g></g></svg>