<svg xmlns="http://www.w3.org/2000/svg" xmlns:xlink="http://www.w3.org/1999/xlink" version="1.1" width="561px" height="211px" viewBox="-0.5 -0.5 561 211" style="background-color: rgb(30, 30, 30);"><defs/><rect fill="#1E1E1E" width="100%" height="100%" x="0" y="0"/><g><g data-cell-id="0"><g data-cell-id="1"><g data-cell-id="2"><g><ellipse cx="250.39" cy="20" rx="53.335" ry="20" fill="#3A3F5A" stroke="#4fc3f7" pointer-events="all"/></g><g><g fill="#FFFFFF" font-family="&quot;Helvetica&quot;" text-anchor="middle" font-size="12px"><text x="249.89" y="24.5">Bryophytes</text></g></g></g><g data-cell-id="3"><g><rect x="47.05" y="90" width="106.67" height="40" rx="6" ry="6" fill="#3A3F5A" stroke="#4fc3f7" pointer-events="all"/></g><g><g fill="#FFFFFF" font-family="&quot;Helvetica&quot;" text-anchor="middle" font-size="12px"><text x="99.89" y="114.5">Liver Warts</text></g></g></g><g data-cell-id="4"><g><path d="M 250.39 40 L 250.39 55 Q 250.39 65 240.39 65 L 110.39 65 Q 100.39 65 100.39 74.32 L 100.39 83.63" fill="none" stroke="#4fc3f7" stroke-miterlimit="10" pointer-events="stroke"/><path d="M 100.39 88.88 L 96.89 81.88 L 100.39 83.63 L 103.89 81.88 Z" fill="#5A9BD5" stroke="#4fc3f7" stroke-miterlimit="10" pointer-events="all"/></g></g><g data-cell-id="5"><g><rect x="347.05" y="90" width="106.67" height="40" rx="6" ry="6" fill="#3A3F5A" stroke="#4fc3f7" pointer-events="all"/></g><g><g fill="#FFFFFF" font-family="&quot;Helvetica&quot;" text-anchor="middle" font-size="12px"><text x="399.89" y="114.5">Mosses</text></g></g></g><g data-cell-id="6"><g><path d="M 250.39 40 L 250.39 55 Q 250.39 65 260.39 65 L 390.39 65 Q 400.39 65 400.39 74.32 L 400.39 83.63" fill="none" stroke="#4fc3f7" stroke-miterlimit="10" pointer-events="stroke"/><path d="M 400.39 88.88 L 396.89 81.88 L 400.39 83.63 L 403.89 81.88 Z" fill="#5A9BD5" stroke="#4fc3f7" stroke-miterlimit="10" pointer-events="all"/></g></g><g data-cell-id="7"><g><rect x="0.39" y="180" width="80" height="30" rx="4.5" ry="4.5" fill="#3A3F5A" stroke="#4fc3f7" pointer-events="all"/></g><g><g fill="#FFFFFF" font-family="&quot;Helvetica&quot;" text-anchor="middle" font-size="12px"><text x="39.89" y="199.5">Riccia</text></g></g></g><g data-cell-id="8"><g><path d="M 100.39 130 L 100.39 145 Q 100.39 155 90.39 155 L 50.39 155 Q 40.39 155 40.39 164.32 L 40.39 173.63" fill="none" stroke="#4fc3f7" stroke-miterlimit="10" pointer-events="stroke"/><path d="M 40.39 178.88 L 36.89 171.88 L 40.39 173.63 L 43.89 171.88 Z" fill="#5A9BD5" stroke="#4fc3f7" stroke-miterlimit="10" pointer-events="all"/></g></g><g data-cell-id="9"><g><rect x="120.39" y="180" width="80" height="30" rx="4.5" ry="4.5" fill="#3A3F5A" stroke="#4fc3f7" pointer-events="all"/></g><g><g fill="#FFFFFF" font-family="&quot;Helvetica&quot;" text-anchor="middle" font-size="12px"><text x="159.89" y="199.5">Marchantia</text></g></g></g><g data-cell-id="10"><g><path d="M 100.39 130 L 100.39 145 Q 100.39 155 110.39 155 L 150.39 155 Q 160.39 155 160.39 164.32 L 160.39 173.63" fill="none" stroke="#4fc3f7" stroke-miterlimit="10" pointer-events="stroke"/><path d="M 160.39 178.88 L 156.89 171.88 L 160.39 173.63 L 163.89 171.88 Z" fill="#5A9BD5" stroke="#4fc3f7" stroke-miterlimit="10" pointer-events="all"/></g></g><g data-cell-id="11"><g><rect x="240.39" y="180" width="80" height="30" rx="4.5" ry="4.5" fill="#3A3F5A" stroke="#4fc3f7" pointer-events="all"/></g><g><g fill="#FFFFFF" font-family="&quot;Helvetica&quot;" text-anchor="middle" font-size="12px"><text x="279.89" y="199.5">Funeria</text></g></g></g><g data-cell-id="12"><g><path d="M 400.39 130 L 400.39 145 Q 400.39 155 390.39 155 L 290.39 155 Q 280.39 155 280.39 164.32 L 280.39 173.63" fill="none" stroke="#4fc3f7" stroke-miterlimit="10" pointer-events="stroke"/><path d="M 280.39 178.88 L 276.89 171.88 L 280.39 173.63 L 283.89 171.88 Z" fill="#5A9BD5" stroke="#4fc3f7" stroke-miterlimit="10" pointer-events="all"/></g></g><g data-cell-id="13"><g><rect x="360.39" y="180" width="80" height="30" rx="4.5" ry="4.5" fill="#3A3F5A" stroke="#4fc3f7" pointer-events="all"/></g><g><g fill="#FFFFFF" font-family="&quot;Helvetica&quot;" text-anchor="middle" font-size="12px"><text x="399.89" y="199.5">Polytrichum</text></g></g></g><g data-cell-id="14"><g><path d="M 400.39 130 L 400.39 145 Q 400.39 155 400.39 164.32 L 400.39 173.63" fill="none" stroke="#4fc3f7" stroke-miterlimit="10" pointer-events="stroke"/><path d="M 400.39 178.88 L 396.89 171.88 L 400.39 173.63 L 403.89 171.88 Z" fill="#5A9BD5" stroke="#4fc3f7" stroke-miterlimit="10" pointer-events="all"/></g></g><g data-cell-id="15"><g><rect x="480.39" y="180" width="80" height="30" rx="4.5" ry="4.5" fill="#3A3F5A" stroke="#4fc3f7" pointer-events="all"/></g><g><g fill="#FFFFFF" font-family="&quot;Helvetica&quot;" text-anchor="middle" font-size="12px"><text x="519.89" y="199.5">Sphagnum</text></g></g></g><g data-cell-id="16"><g><path d="M 400.39 130 L 400.39 145 Q 400.39 155 410.39 155 L 510.39 155 Q 520.39 155 520.39 164.32 L 520.39 173.63" fill="none" stroke="#4fc3f7" stroke-miterlimit="10" pointer-events="stroke"/><path d="M 520.39 178.88 L 516.89 171.88 L 520.39 173.63 L 523.89 171.88 Z" fill="#5A9BD5" stroke="#4fc3f7" stroke-miterlimit="10" pointer-events="all"/></g></g></g></g></g></svg>