<svg xmlns="http://www.w3.org/2000/svg" xmlns:xlink="http://www.w3.org/1999/xlink" version="1.1" width="301px" height="161px" viewBox="-0.5 -0.5 301 161" style="background-color: rgb(30, 30, 30);"><defs/><rect fill="#1E1E1E" width="100%" height="100%" x="0" y="0"/><g><g data-cell-id="0"><g data-cell-id="1"><g data-cell-id="3"><g><ellipse cx="150" cy="15" rx="40" ry="15" fill="#2d2d2d" stroke="#4fc3f7" pointer-events="all"/></g><g><g fill="#FFFFFF" font-family="&quot;Helvetica&quot;" text-anchor="middle" font-size="12px"><text x="149.5" y="19.5">Plants</text></g></g></g><g data-cell-id="4"><g><rect x="0" y="130" width="80" height="30" rx="4.5" ry="4.5" fill="#2d2d2d" stroke="#4fc3f7" pointer-events="all"/></g><g><g fill="#FFFFFF" font-family="&quot;Helvetica&quot;" text-anchor="middle" font-size="12px"><text x="39.5" y="149.5">Herbs</text></g></g></g><g data-cell-id="5"><g><path d="M 126.67 27.18 Q 126.67 42 83.33 80 Q 40 118 40 123.63" fill="none" stroke="#788aa3" stroke-miterlimit="10" pointer-events="stroke"/><path d="M 40 128.88 L 36.5 121.88 L 40 123.63 L 43.5 121.88 Z" fill="#788aa3" stroke="#788aa3" stroke-miterlimit="10" pointer-events="all"/></g></g><g data-cell-id="6"><g><rect x="110" y="130" width="80" height="30" rx="4.5" ry="4.5" fill="#2d2d2d" stroke="#4fc3f7" pointer-events="all"/></g><g><g fill="#FFFFFF" font-family="&quot;Helvetica&quot;" text-anchor="middle" font-size="12px"><text x="149.5" y="149.5">Shrubs</text></g></g></g><g data-cell-id="7"><g><path d="M 150 30 Q 150 44 150 81 Q 150 118 150 123.63" fill="none" stroke="#788aa3" stroke-miterlimit="10" pointer-events="stroke"/><path d="M 150 128.88 L 146.5 121.88 L 150 123.63 L 153.5 121.88 Z" fill="#788aa3" stroke="#788aa3" stroke-miterlimit="10" pointer-events="all"/></g></g><g data-cell-id="8"><g><rect x="220" y="130" width="80" height="30" rx="4.5" ry="4.5" fill="#2d2d2d" stroke="#4fc3f7" pointer-events="all"/></g><g><g fill="#FFFFFF" font-family="&quot;Helvetica&quot;" text-anchor="middle" font-size="12px"><text x="259.5" y="149.5">Trees</text></g></g></g><g data-cell-id="9"><g><path d="M 173.33 27.18 Q 173.33 42 216.67 80 Q 260 118 260 123.63" fill="none" stroke="#788aa3" stroke-miterlimit="10" pointer-events="stroke"/><path d="M 260 128.88 L 256.5 121.88 L 260 123.63 L 263.5 121.88 Z" fill="#788aa3" stroke="#788aa3" stroke-miterlimit="10" pointer-events="all"/></g></g></g></g></g></svg>