<svg xmlns="http://www.w3.org/2000/svg" xmlns:xlink="http://www.w3.org/1999/xlink" version="1.1" width="975px" height="312px" viewBox="-0.5 -0.5 975 312" style="background-color: rgb(30, 30, 30);"><defs/><rect fill="#1E1E1E" width="100%" height="100%" x="0" y="0"/><g><g data-cell-id="0"><g data-cell-id="1"><g data-cell-id="2"><g><ellipse cx="450.32" cy="20" rx="53.33500000000001" ry="20" fill="#3A3F5A" stroke="#4fc3f7" pointer-events="all"/></g><g><g fill="#FFFFFF" font-family="&quot;Helvetica&quot;" text-anchor="middle" font-size="12px"><text x="449.82" y="24.5">Bacteria</text></g></g></g><g data-cell-id="3"><g><rect x="147.39" y="90" width="106.67" height="40" rx="6" ry="6" fill="#3A3F5A" stroke="#4fc3f7" pointer-events="all"/></g><g><g fill="#FFFFFF" font-family="&quot;Helvetica&quot;" text-anchor="middle" font-size="12px"><text x="200.22" y="114.5">Archaebacteria</text></g></g></g><g data-cell-id="4"><g><path d="M 450.32 40 L 450.32 54.5 Q 450.32 64.5 440.32 64.5 L 210.72 64.5 Q 200.72 64.5 200.72 74.07 L 200.72 83.63" fill="none" stroke="#4fc3f7" stroke-miterlimit="10" pointer-events="stroke"/><path d="M 200.72 88.88 L 197.22 81.88 L 200.72 83.63 L 204.22 81.88 Z" fill="#5A9BD5" stroke="#4fc3f7" stroke-miterlimit="10" pointer-events="all"/></g></g><g data-cell-id="5"><g><rect x="646.58" y="90" width="106.67" height="40" rx="6" ry="6" fill="#3A3F5A" stroke="#4fc3f7" pointer-events="all"/></g><g><g fill="#FFFFFF" font-family="&quot;Helvetica&quot;" text-anchor="middle" font-size="12px"><text x="699.42" y="114.5">Eubacteria</text></g></g></g><g data-cell-id="6"><g><path d="M 450.32 40 L 450.32 54.5 Q 450.32 64.5 460.32 64.5 L 689.92 64.5 Q 699.92 64.5 699.92 74.07 L 699.92 83.63" fill="none" stroke="#4fc3f7" stroke-miterlimit="10" pointer-events="stroke"/><path d="M 699.92 88.88 L 696.42 81.88 L 699.92 83.63 L 703.42 81.88 Z" fill="#5A9BD5" stroke="#4fc3f7" stroke-miterlimit="10" pointer-events="all"/></g></g><g data-cell-id="7"><g><rect x="-0.15" y="180" width="106.67" height="40" rx="6" ry="6" fill="#3A3F5A" stroke="#4fc3f7" pointer-events="all"/></g><g><g fill="#FFFFFF" font-family="&quot;Helvetica&quot;" text-anchor="middle" font-size="12px"><text x="52.68" y="204.5">Halophiles</text></g></g></g><g data-cell-id="8"><g><path d="M 200.72 130 L 200.72 144.5 Q 200.72 154.5 190.72 154.5 L 63.18 154.5 Q 53.18 154.5 53.18 164.07 L 53.18 173.63" fill="none" stroke="#4fc3f7" stroke-miterlimit="10" pointer-events="stroke"/><path d="M 53.18 178.88 L 49.68 171.88 L 53.18 173.63 L 56.68 171.88 Z" fill="#5A9BD5" stroke="#4fc3f7" stroke-miterlimit="10" pointer-events="all"/></g></g><g data-cell-id="9"><g><rect x="146.52" y="180" width="108.41" height="40.65" rx="6.1" ry="6.1" fill="#3A3F5A" stroke="#4fc3f7" pointer-events="all"/></g><g><g fill="#FFFFFF" font-family="&quot;Helvetica&quot;" text-anchor="middle" font-size="12px"><text x="200.22" y="204.83">Thermoacidophiles</text></g></g></g><g data-cell-id="10"><g><path d="M 200.72 130 L 200.72 144.5 Q 200.72 154.5 200.72 164.07 L 200.72 173.63" fill="none" stroke="#4fc3f7" stroke-miterlimit="10" pointer-events="stroke"/><path d="M 200.72 178.88 L 197.22 171.88 L 200.72 173.63 L 204.22 171.88 Z" fill="#5A9BD5" stroke="#4fc3f7" stroke-miterlimit="10" pointer-events="all"/></g></g><g data-cell-id="11"><g><rect x="294.93" y="180" width="106.67" height="40" rx="6" ry="6" fill="#3A3F5A" stroke="#4fc3f7" pointer-events="all"/></g><g><g fill="#FFFFFF" font-family="&quot;Helvetica&quot;" text-anchor="middle" font-size="12px"><text x="347.76" y="204.5">Methanogens</text></g></g></g><g data-cell-id="12"><g><path d="M 200.72 130 L 200.72 144.5 Q 200.72 154.5 210.72 154.5 L 338.26 154.5 Q 348.26 154.5 348.26 164.07 L 348.26 173.63" fill="none" stroke="#4fc3f7" stroke-miterlimit="10" pointer-events="stroke"/><path d="M 348.26 178.88 L 344.76 171.88 L 348.26 173.63 L 351.76 171.88 Z" fill="#5A9BD5" stroke="#4fc3f7" stroke-miterlimit="10" pointer-events="all"/></g></g><g data-cell-id="13"><g><rect x="499.32" y="180" width="106.67" height="40" rx="6" ry="6" fill="#3A3F5A" stroke="#4fc3f7" pointer-events="all"/></g><g><g fill="#FFFFFF" font-family="&quot;Helvetica&quot;" text-anchor="middle" font-size="12px"><text x="552.16" y="204.5">Autotrophs</text></g></g></g><g data-cell-id="14"><g><path d="M 699.92 130 L 699.92 144.5 Q 699.92 154.5 689.92 154.5 L 562.66 154.5 Q 552.66 154.5 552.66 164.07 L 552.66 173.63" fill="none" stroke="#4fc3f7" stroke-miterlimit="10" pointer-events="stroke"/><path d="M 552.66 178.88 L 549.16 171.88 L 552.66 173.63 L 556.16 171.88 Z" fill="#5A9BD5" stroke="#4fc3f7" stroke-miterlimit="10" pointer-events="all"/></g></g><g data-cell-id="15"><g><rect x="793.84" y="180" width="106.67" height="40" rx="6" ry="6" fill="#3A3F5A" stroke="#4fc3f7" pointer-events="all"/></g><g><g fill="#FFFFFF" font-family="&quot;Helvetica&quot;" text-anchor="middle" font-size="12px"><text x="846.68" y="204.5">Heterotrophs</text></g></g></g><g data-cell-id="16"><g><path d="M 699.92 130 L 699.92 144.5 Q 699.92 154.5 709.92 154.5 L 837.18 154.5 Q 847.18 154.5 847.18 164.07 L 847.18 173.63" fill="none" stroke="#4fc3f7" stroke-miterlimit="10" pointer-events="stroke"/><path d="M 847.18 178.88 L 843.68 171.88 L 847.18 173.63 L 850.68 171.88 Z" fill="#5A9BD5" stroke="#4fc3f7" stroke-miterlimit="10" pointer-events="all"/></g></g><g data-cell-id="17"><g><rect x="427.17" y="270" width="106.67" height="40" rx="6" ry="6" fill="#3A3F5A" stroke="#4fc3f7" pointer-events="all"/></g><g><g fill="#FFFFFF" font-family="&quot;Helvetica&quot;" text-anchor="middle" font-size="12px"><text x="480" y="294.5">Photosynthetic</text></g></g></g><g data-cell-id="18"><g><path d="M 552.66 220 L 552.66 234.5 Q 552.66 244.5 542.66 244.5 L 490.5 244.5 Q 480.5 244.5 480.5 254.07 L 480.5 263.63" fill="none" stroke="#4fc3f7" stroke-miterlimit="10" pointer-events="stroke"/><path d="M 480.5 268.88 L 477 261.88 L 480.5 263.63 L 484 261.88 Z" fill="#5A9BD5" stroke="#4fc3f7" stroke-miterlimit="10" pointer-events="all"/></g></g><g data-cell-id="19"><g><rect x="573.84" y="270" width="112.16" height="40" rx="6" ry="6" fill="#3A3F5A" stroke="#4fc3f7" pointer-events="all"/></g><g><g fill="#FFFFFF" font-family="&quot;Helvetica&quot;" text-anchor="middle" font-size="12px"><text x="629.42" y="294.5">Chemosynthetic</text></g></g></g><g data-cell-id="20"><g><path d="M 552.66 220 L 552.66 234.5 Q 552.66 244.5 562.66 244.5 L 619.92 244.5 Q 629.92 244.5 629.92 254.07 L 629.92 263.63" fill="none" stroke="#4fc3f7" stroke-miterlimit="10" pointer-events="stroke"/><path d="M 629.92 268.88 L 626.42 261.88 L 629.92 263.63 L 633.42 261.88 Z" fill="#5A9BD5" stroke="#4fc3f7" stroke-miterlimit="10" pointer-events="all"/></g></g><g data-cell-id="21"><g><rect x="720.51" y="270" width="106.67" height="40" rx="6" ry="6" fill="#3A3F5A" stroke="#4fc3f7" pointer-events="all"/></g><g><g fill="#FFFFFF" font-family="&quot;Helvetica&quot;" text-anchor="middle" font-size="12px"><text x="773.34" y="294.5">Parasitic</text></g></g></g><g data-cell-id="22"><g><path d="M 847.18 220 L 847.18 234.5 Q 847.18 244.5 837.18 244.5 L 783.84 244.5 Q 773.84 244.5 773.84 254.07 L 773.84 263.63" fill="none" stroke="#4fc3f7" stroke-miterlimit="10" pointer-events="stroke"/><path d="M 773.84 268.88 L 770.34 261.88 L 773.84 263.63 L 777.34 261.88 Z" fill="#5A9BD5" stroke="#4fc3f7" stroke-miterlimit="10" pointer-events="all"/></g></g><g data-cell-id="23"><g><rect x="867.18" y="270" width="106.67" height="40" rx="6" ry="6" fill="#3A3F5A" stroke="#4fc3f7" pointer-events="all"/></g><g><g fill="#FFFFFF" font-family="&quot;Helvetica&quot;" text-anchor="middle" font-size="12px"><text x="920.01" y="294.5">Entry</text></g></g></g><g data-cell-id="24"><g><path d="M 847.18 220 L 847.18 234.5 Q 847.18 244.5 857.18 244.5 L 910.51 244.5 Q 920.51 244.5 920.51 254.07 L 920.51 263.63" fill="none" stroke="#4fc3f7" stroke-miterlimit="10" pointer-events="stroke"/><path d="M 920.51 268.88 L 917.01 261.88 L 920.51 263.63 L 924.01 261.88 Z" fill="#5A9BD5" stroke="#4fc3f7" stroke-miterlimit="10" pointer-events="all"/></g></g></g></g></g></svg>