<svg xmlns="http://www.w3.org/2000/svg" xmlns:xlink="http://www.w3.org/1999/xlink" version="1.1" width="511px" height="242px" viewBox="-0.5 -0.5 511 242" style="background-color: rgb(30, 30, 30);"><defs/><rect fill="#1E1E1E" width="100%" height="100%" x="0" y="0"/><g><g data-cell-id="0"><g data-cell-id="1"><g data-cell-id="2"><g><ellipse cx="66.66" cy="154.76" rx="66.665" ry="25" fill="#3A3F5A" stroke="#4fc3f7" pointer-events="all"/></g><g><g fill="#FFFFFF" font-family="&quot;Helvetica&quot;" text-anchor="middle" font-size="12px"><text x="66.16" y="152.26">Bacteria</text><text x="66.16" y="166.26">(Monera)</text></g></g></g><g data-cell-id="3"><g><rect x="183.33" y="68.66" width="106.67" height="40" rx="6" ry="6" fill="#3A3F5A" stroke="#4fc3f7" pointer-events="all"/></g><g><g fill="#FFFFFF" font-family="&quot;Helvetica&quot;" text-anchor="middle" font-size="12px"><text x="236.16" y="93.16">Autotrophic</text></g></g></g><g data-cell-id="4"><g><path d="M 133.33 154.76 L 148 154.76 Q 158 154.76 158 144.76 L 158 98.66 Q 158 88.66 167.48 88.66 L 176.96 88.66" fill="none" stroke="#4fc3f7" stroke-miterlimit="10" pointer-events="stroke"/><path d="M 182.21 88.66 L 175.21 92.16 L 176.96 88.66 L 175.21 85.16 Z" fill="#5A9BD5" stroke="#4fc3f7" stroke-miterlimit="10" pointer-events="all"/></g></g><g data-cell-id="5"><g><rect x="183.33" y="203.36" width="106.67" height="37.5" rx="5.63" ry="5.63" fill="#3A3F5A" stroke="#4fc3f7" pointer-events="all"/></g><g><g fill="#FFFFFF" font-family="&quot;Helvetica&quot;" text-anchor="middle" font-size="12px"><text x="236.16" y="226.61">Heterotrophic</text></g></g></g><g data-cell-id="6"><g><path d="M 133.33 154.76 L 148 154.76 Q 158 154.76 158 164.76 L 158 212.11 Q 158 222.11 167.48 222.11 L 176.96 222.11" fill="none" stroke="#4fc3f7" stroke-miterlimit="10" pointer-events="stroke"/><path d="M 182.21 222.11 L 175.21 225.61 L 176.96 222.11 L 175.21 218.61 Z" fill="#5A9BD5" stroke="#4fc3f7" stroke-miterlimit="10" pointer-events="all"/></g></g><g data-cell-id="7"><g><rect x="340" y="0.29" width="170" height="63.75" rx="9.56" ry="9.56" fill="#3A3F5A" stroke="#4fc3f7" pointer-events="all"/></g><g><g fill="#FFFFFF" font-family="&quot;Helvetica&quot;" text-anchor="middle" font-size="12px"><text x="424.5" y="36.67">Photosynthetic autotrophs</text></g></g></g><g data-cell-id="8"><g><path d="M 290 88.66 L 305 88.66 Q 315 88.66 315 78.66 L 315 42.17 Q 315 32.17 324.32 32.17 L 333.63 32.17" fill="none" stroke="#4fc3f7" stroke-miterlimit="10" pointer-events="stroke"/><path d="M 338.88 32.17 L 331.88 35.67 L 333.63 32.17 L 331.88 28.67 Z" fill="#5A9BD5" stroke="#4fc3f7" stroke-miterlimit="10" pointer-events="all"/></g></g><g data-cell-id="9"><g><rect x="340" y="104.04" width="168.89" height="63.33" rx="9.5" ry="9.5" fill="#3A3F5A" stroke="#4fc3f7" pointer-events="all"/></g><g><g fill="#FFFFFF" font-family="&quot;Helvetica&quot;" text-anchor="middle" font-size="12px"><text x="423.94" y="140.21">Chemosynthetic autotrophs</text></g></g></g><g data-cell-id="10"><g><path d="M 290 88.66 L 305 88.66 Q 315 88.66 315 98.66 L 315 125.71 Q 315 135.71 324.32 135.71 L 333.63 135.71" fill="none" stroke="#4fc3f7" stroke-miterlimit="10" pointer-events="stroke"/><path d="M 338.88 135.71 L 331.88 139.21 L 333.63 135.71 L 331.88 132.21 Z" fill="#5A9BD5" stroke="#4fc3f7" stroke-miterlimit="10" pointer-events="all"/></g></g></g></g></g></svg>