<svg xmlns="http://www.w3.org/2000/svg" xmlns:xlink="http://www.w3.org/1999/xlink" version="1.1" width="321px" height="211px" viewBox="-0.5 -0.5 321 211" style="background-color: rgb(30, 30, 30);"><defs/><rect fill="#d8eaf7" width="100%" height="100%" x="0" y="0"/><g><g data-cell-id="0"><g data-cell-id="1"><g data-cell-id="12"><g><ellipse cx="157.5" cy="30" rx="65" ry="30" fill="#B0C4DE" stroke="#4fc3f7" pointer-events="all"/></g><g><g fill="#333333" font-family="&quot;Helvetica&quot;" text-anchor="middle" font-size="12px"><text x="157" y="34.5">Living Organisms</text></g></g></g><g data-cell-id="13"><g><rect x="0" y="160" width="110" height="50" rx="7.5" ry="7.5" fill="#B0C4DE" stroke="#4fc3f7" pointer-events="all"/></g><g><g fill="#333333" font-family="&quot;Helvetica&quot;" text-anchor="middle" font-size="12px"><text x="54.5" y="189.5">Kingdom Plantae</text></g></g></g><g data-cell-id="14"><g><path d="M 127.5 56.61 Q 127.5 72 106.25 110 Q 85 148 85 153.63" fill="none" stroke="#4fc3f7" stroke-miterlimit="10" pointer-events="stroke"/><path d="M 85 158.88 L 81.5 151.88 L 85 153.63 L 88.5 151.88 Z" fill="#5A9BD5" stroke="#4fc3f7" stroke-miterlimit="10" pointer-events="all"/></g></g><g data-cell-id="15"><g><rect x="200" y="160" width="120" height="50" rx="7.5" ry="7.5" fill="#B0C4DE" stroke="#4fc3f7" pointer-events="all"/></g><g><g fill="#333333" font-family="&quot;Helvetica&quot;" text-anchor="middle" font-size="12px"><text x="259.5" y="189.5">Kingdom Animalia</text></g></g></g><g data-cell-id="16"><g><path d="M 187.5 56.61 Q 187.5 72 208.75 110 Q 230 148 230 153.63" fill="none" stroke="#4fc3f7" stroke-miterlimit="10" pointer-events="stroke"/><path d="M 230 158.88 L 226.5 151.88 L 230 153.63 L 233.5 151.88 Z" fill="#5A9BD5" stroke="#4fc3f7" stroke-miterlimit="10" pointer-events="all"/></g></g></g></g></g></svg>