<svg xmlns="http://www.w3.org/2000/svg" xmlns:xlink="http://www.w3.org/1999/xlink" version="1.1" width="521px" height="181px" viewBox="-0.5 -0.5 521 181" style="background-color: rgb(30, 30, 30);"><defs/><rect fill="#1E1E1E" width="100%" height="100%" x="0" y="0"/><g><g data-cell-id="0"><g data-cell-id="1"><g data-cell-id="2"><g><ellipse cx="260" cy="25" rx="50" ry="25" fill="#2d2d2d" stroke="#4fc3f7" pointer-events="all"/></g><g><g fill="#FFFFFF" font-family="&quot;Helvetica&quot;" text-anchor="middle" font-size="12px"><text x="259.5" y="29.5">Kingdoms</text></g></g></g><g data-cell-id="3"><g><rect x="0" y="150" width="80" height="30" rx="4.5" ry="4.5" fill="#2d2d2d" stroke="#4fc3f7" pointer-events="all"/></g><g><g fill="#FFFFFF" font-family="&quot;Helvetica&quot;" text-anchor="middle" font-size="12px"><text x="39.5" y="169.5">Monera</text></g></g></g><g data-cell-id="4"><g><path d="M 224 42.35 Q 224 62 132 100 Q 40 138 40 143.63" fill="none" stroke="#4fc3f7" stroke-miterlimit="10" pointer-events="stroke"/><path d="M 40 148.88 L 36.5 141.88 L 40 143.63 L 43.5 141.88 Z" fill="#4fc3f7" stroke="#4fc3f7" stroke-miterlimit="10" pointer-events="all"/></g></g><g data-cell-id="5"><g><rect x="110" y="150" width="80" height="30" rx="4.5" ry="4.5" fill="#2d2d2d" stroke="#4fc3f7" pointer-events="all"/></g><g><g fill="#FFFFFF" font-family="&quot;Helvetica&quot;" text-anchor="middle" font-size="12px"><text x="149.5" y="169.5">Protista</text></g></g></g><g data-cell-id="6"><g><path d="M 242 48.32 Q 242 64 196 101 Q 150 138 150 143.63" fill="none" stroke="#4fc3f7" stroke-miterlimit="10" pointer-events="stroke"/><path d="M 150 148.88 L 146.5 141.88 L 150 143.63 L 153.5 141.88 Z" fill="#4fc3f7" stroke="#4fc3f7" stroke-miterlimit="10" pointer-events="all"/></g></g><g data-cell-id="7"><g><rect x="220" y="150" width="80" height="30" rx="4.5" ry="4.5" fill="#2d2d2d" stroke="#4fc3f7" pointer-events="all"/></g><g><g fill="#FFFFFF" font-family="&quot;Helvetica&quot;" text-anchor="middle" font-size="12px"><text x="259.5" y="169.5">Fungi</text></g></g></g><g data-cell-id="8"><g><path d="M 260 50 Q 260 66 260 102 Q 260 138 260 143.63" fill="none" stroke="#4fc3f7" stroke-miterlimit="10" pointer-events="stroke"/><path d="M 260 148.88 L 256.5 141.88 L 260 143.63 L 263.5 141.88 Z" fill="#4fc3f7" stroke="#4fc3f7" stroke-miterlimit="10" pointer-events="all"/></g></g><g data-cell-id="9"><g><rect x="330" y="150" width="80" height="30" rx="4.5" ry="4.5" fill="#2d2d2d" stroke="#4fc3f7" pointer-events="all"/></g><g><g fill="#FFFFFF" font-family="&quot;Helvetica&quot;" text-anchor="middle" font-size="12px"><text x="369.5" y="169.5">Platae</text></g></g></g><g data-cell-id="10"><g><path d="M 278 48.32 Q 278 64 324 101 Q 370 138 370 143.63" fill="none" stroke="#4fc3f7" stroke-miterlimit="10" pointer-events="stroke"/><path d="M 370 148.88 L 366.5 141.88 L 370 143.63 L 373.5 141.88 Z" fill="#4fc3f7" stroke="#4fc3f7" stroke-miterlimit="10" pointer-events="all"/></g></g><g data-cell-id="11"><g><rect x="440" y="150" width="80" height="30" rx="4.5" ry="4.5" fill="#2d2d2d" stroke="#4fc3f7" pointer-events="all"/></g><g><g fill="#FFFFFF" font-family="&quot;Helvetica&quot;" text-anchor="middle" font-size="12px"><text x="479.5" y="169.5">Animalia</text></g></g></g><g data-cell-id="12"><g><path d="M 296 42.35 Q 296 62 388 100 Q 480 138 480 143.63" fill="none" stroke="#4fc3f7" stroke-miterlimit="10" pointer-events="stroke"/><path d="M 480 148.88 L 476.5 141.88 L 480 143.63 L 483.5 141.88 Z" fill="#4fc3f7" stroke="#4fc3f7" stroke-miterlimit="10" pointer-events="all"/></g></g></g></g></g></svg>